<svg id="圖層_1" data-name="圖層 1" xmlns="http://www.w3.org/2000/svg" viewBox="0 0 275.74 315.29"><defs><style>.cls-1{fill:none;}.cls-2{fill:#040000;}.cls-3{fill:#eee;}.cls-4{fill:#919aaa;}.cls-5{fill:#3a3e48;}.cls-6{fill:#fff;}</style></defs><title>White Crewvio (1)</title><path class="cls-1" d="M402.78,354a127.51,127.51,0,0,0,89.57-37.05H402.78Z" transform="translate(-282.83 -141.92)"/><path class="cls-2" d="M282.83,436.84a20.62,20.62,0,0,0,20.83,20.36,21,21,0,0,0,7.56-1.41v-5.46a16.09,16.09,0,0,1-7.56,1.87,15.37,15.37,0,1,1,0-30.72,16.09,16.09,0,0,1,7.56,1.87v-5.46a21,21,0,0,0-7.56-1.41A20.62,20.62,0,0,0,282.83,436.84Z" transform="translate(-282.83 -141.92)"/><polygon class="cls-2" points="186.92 302.81 174.43 274.57 168.91 274.57 184.17 309.04 186.92 315.27 189.68 309.04 204.94 274.57 199.42 274.57 186.92 302.81"/><rect class="cls-2" x="219.31" y="274.56" width="4.71" height="40.72"/><polygon class="cls-2" points="77.2 279.98 100.29 280.1 100.31 275.54 77.22 275.43 77.2 279.98"/><polygon class="cls-2" points="77.2 314.29 100.29 314.4 100.31 309.85 77.22 309.74 77.2 314.29"/><polygon class="cls-2" points="77.2 297.13 100.29 297.25 100.31 292.7 77.22 292.58 77.2 297.13"/><path class="cls-2" d="M539.49,416.5c-10.52,0-19.08,9.13-19.08,20.34s8.56,20.34,19.08,20.34,19.08-9.13,19.08-20.34S550,416.5,539.49,416.5Zm0,35.83c-8.08,0-14.66-6.95-14.66-15.49s6.58-15.5,14.66-15.5,14.66,7,14.66,15.5S547.57,452.33,539.49,452.33Z" transform="translate(-282.83 -141.92)"/><polygon class="cls-2" points="145.45 302.42 145.45 302.42 143.93 306.28 142.83 309.06 142.83 309.06 145.78 315.26 147.99 309.68 148.41 308.62 161.87 274.55 156.46 274.55 145.45 302.42"/><polygon class="cls-2" points="135.88 282.38 132.98 288.45 126.3 302.45 115.3 274.59 109.89 274.59 123.34 308.64 125.97 315.29 128.93 309.09 135.88 294.52 139.74 302.6 142.55 296.35 138.78 288.45 135.88 282.38"/><polygon class="cls-2" points="42.73 294.91 42.73 294.92 42.73 294.91 42.73 294.91"/><path class="cls-2" d="M347.89,429.29a12.83,12.83,0,0,0-12.81-12.81H323.56v5h11.52a7.81,7.81,0,0,1,0,15.62H323.56l4.19,5,12.66,15.1h6.07l-12.66-15.1h1.26A12.83,12.83,0,0,0,347.89,429.29Z" transform="translate(-282.83 -141.92)"/><path class="cls-1" d="M407.78,270.23v11l0,0v5.49a46.83,46.83,0,0,0,48,2.58v15.79a61,61,0,0,1-48-1.78v19.84h89.79V233.41H438.62v36.82Z" transform="translate(-282.83 -141.92)"/><path class="cls-1" d="M407,277.23v-7H393c.35.68.71,1.35,1.1,2,.6,1,1.24,2,1.93,3,.24.35.5.69.75,1a45.25,45.25,0,0,0,10.25,10v-9Z" transform="translate(-282.83 -141.92)"/><path class="cls-1" d="M498.32,323a127.54,127.54,0,0,0,37-89.54h-37Z" transform="translate(-282.83 -141.92)"/><path class="cls-1" d="M407.78,361a127.51,127.51,0,0,0,89.57-37.05H407.78Z" transform="translate(-282.83 -141.92)"/><path class="cls-3" d="M310.31,270.23h37.58V179.51A127.89,127.89,0,0,0,310.31,270.23Z" transform="translate(-282.83 -141.92)"/><path class="cls-3" d="M438.62,141.92a127.91,127.91,0,0,0-90.73,37.58h90.73Z" transform="translate(-282.83 -141.92)"/><rect class="cls-4" x="124.95" y="91.49" width="30.84" height="36.82"/><path class="cls-2" d="M498.32,232.66h-59.7v.75h58.95v89.76H407.78V303.33L407,303v58.74h.37c71,0,128.69-57.73,128.69-128.68v-.38ZM407.78,361V323.92h89.57A127.51,127.51,0,0,1,407.78,361Zm90.54-38V233.41h37A127.54,127.54,0,0,1,498.32,323Z" transform="translate(-282.83 -141.92)"/><path class="cls-2" d="M407.78,281.27v-11H407v16l.73.52v-5.49Z" transform="translate(-282.83 -141.92)"/><path class="cls-4" d="M432.62,191.49c.42,0,.84,0,1.27,0,1.59,0,3.17.08,4.73.2V179.5H347.89v90.72h29.34a57.28,57.28,0,0,1-3.58-19.91C373.65,218.28,400,192.16,432.62,191.49Z" transform="translate(-282.83 -141.92)"/><path class="cls-4" d="M432.62,206c-24.66.66-44.51,20.3-44.51,44.37A43.08,43.08,0,0,0,393,270.23h14V232.66h31.59V206.18a46.22,46.22,0,0,0-4.73-.26C433.46,205.92,433,205.94,432.62,206Z" transform="translate(-282.83 -141.92)"/><path class="cls-5" d="M433.89,309.18a61.11,61.11,0,0,0,21.85-4.07V289.32a46.83,46.83,0,0,1-48-2.58l-.73-.52a45.25,45.25,0,0,1-10.25-10c-.25-.33-.51-.67-.75-1-.69-1-1.33-2-1.93-3-.39-.65-.75-1.32-1.1-2a43.08,43.08,0,0,1-4.89-19.91c0-24.07,19.85-43.71,44.51-44.37.42,0,.84,0,1.27,0a48,48,0,0,1,21.85,5.4V195.53a62,62,0,0,0-17.12-3.87c-1.56-.12-3.14-.2-4.73-.2-.43,0-.85,0-1.27,0-32.63.67-59,26.79-59,58.83a57.28,57.28,0,0,0,3.58,19.91c.25.67.5,1.34.77,2a59.23,59.23,0,0,0,18,23.83l.75.57A60.09,60.09,0,0,0,407,303l.75.35A60.86,60.86,0,0,0,433.89,309.18Z" transform="translate(-282.83 -141.92)"/><polygon class="cls-6" points="124.2 128.31 124.95 128.31 124.95 91.49 155.79 91.49 155.79 90.74 124.2 90.74 124.2 128.31"/></svg>