<svg id="圖層_1" data-name="圖層 1" xmlns="http://www.w3.org/2000/svg" viewBox="0 0 275.74 309.96"><defs><style>.cls-1{fill:#fff;}.cls-2{fill:none;}.cls-3{fill:#929aab;}.cls-4{fill:#393e46;}</style></defs><title>Crewvio b1</title><path class="cls-1" d="M286.55,439.75a20.62,20.62,0,0,0,20.84,20.35,21.07,21.07,0,0,0,7.56-1.41v-5.46a16.15,16.15,0,0,1-7.56,1.87,15.36,15.36,0,1,1,0-30.71,16.15,16.15,0,0,1,7.56,1.87V420.8a21.07,21.07,0,0,0-7.56-1.41A20.63,20.63,0,0,0,286.55,439.75Z" transform="translate(-286.55 -150.15)"/><polygon class="cls-1" points="186.92 297.48 174.43 269.24 168.91 269.24 184.17 303.71 186.92 309.94 189.68 303.71 204.94 269.24 199.42 269.24 186.92 297.48"/><rect class="cls-1" x="219.31" y="269.23" width="4.71" height="40.72"/><polygon class="cls-1" points="77.2 274.66 100.29 274.77 100.31 270.22 77.22 270.11 77.2 274.66"/><polygon class="cls-1" points="77.2 308.96 100.29 309.08 100.31 304.53 77.22 304.41 77.2 308.96"/><polygon class="cls-1" points="77.2 291.81 100.29 291.93 100.31 287.37 77.22 287.26 77.2 291.81"/><path class="cls-1" d="M543.21,419.41c-10.52,0-19.07,9.12-19.07,20.34s8.55,20.33,19.07,20.33,19.08-9.12,19.08-20.33S553.73,419.41,543.21,419.41Zm0,35.83c-8.08,0-14.66-6.95-14.66-15.49s6.58-15.5,14.66-15.5,14.66,6.95,14.66,15.5S551.3,455.24,543.21,455.24Z" transform="translate(-286.55 -150.15)"/><polygon class="cls-1" points="145.45 297.1 145.45 297.09 143.93 300.95 142.83 303.74 142.83 303.74 145.78 309.93 147.99 304.35 148.41 303.29 161.87 269.22 156.46 269.22 145.45 297.1"/><polygon class="cls-1" points="135.88 277.06 132.98 283.13 126.3 297.12 115.3 269.27 109.89 269.27 123.34 303.32 125.97 309.96 128.93 303.77 135.88 289.2 139.74 297.27 142.55 291.02 138.78 283.13 135.88 277.06"/><polygon class="cls-1" points="42.73 289.59 42.73 289.6 42.73 289.59 42.73 289.59"/><path class="cls-1" d="M351.61,432.2a12.81,12.81,0,0,0-12.8-12.81H327.29v5h11.52a7.81,7.81,0,0,1,0,15.62H327.29l4.18,5,12.67,15.09h6.07L337.55,445h1.26A12.82,12.82,0,0,0,351.61,432.2Z" transform="translate(-286.55 -150.15)"/><path class="cls-2" d="M409,331.4h89.8V241.64h-59v36.82H409V295a46.84,46.84,0,0,0,48,2.57v15.79a61,61,0,0,1-48-1.78V331.4Z" transform="translate(-286.55 -150.15)"/><path class="cls-2" d="M409,369.2a127.49,127.49,0,0,0,89.57-37.05H409Z" transform="translate(-286.55 -150.15)"/><path class="cls-2" d="M403.25,278.46h-9c.35.68.71,1.35,1.09,2,.61,1,1.25,2.05,1.93,3l.75,1a45.5,45.5,0,0,0,10.25,10v-16h-5Z" transform="translate(-286.55 -150.15)"/><path class="cls-2" d="M499.55,331.18a127.51,127.51,0,0,0,37-89.54h-37Z" transform="translate(-286.55 -150.15)"/><path class="cls-3" d="M311.53,278.46h37.58V187.74A127.93,127.93,0,0,0,311.53,278.46Z" transform="translate(-286.55 -150.15)"/><path class="cls-3" d="M439.84,150.15a127.91,127.91,0,0,0-90.73,37.58h90.73Z" transform="translate(-286.55 -150.15)"/><rect class="cls-4" x="122.45" y="91.49" width="30.84" height="36.82"/><path class="cls-1" d="M499.55,240.89h-91.3v53.57a45.5,45.5,0,0,1-10.25-10l-.75-1c-.68-1-1.32-2-1.93-3-.38-.65-.74-1.32-1.09-2a43,43,0,0,1-4.9-19.91c0-24.07,19.86-43.71,44.51-44.37l1.27,0a48,48,0,0,1,21.86,5.4V203.77a61.59,61.59,0,0,0-17.13-3.88c-1.56-.12-3.13-.2-4.73-.2-.42,0-.84,0-1.27,0a62.34,62.34,0,0,0-6.45.47,60.73,60.73,0,0,0-8.59,1.71h0c-25.31,7-43.92,29.71-43.92,56.64a57.27,57.27,0,0,0,3.57,19.91c.25.67.5,1.34.77,2a59.32,59.32,0,0,0,18,23.83l.75.57a60.48,60.48,0,0,0,10.25,6.35V370h.38A128.82,128.82,0,0,0,537.31,241.27v-.38Zm-64.44,76.52A61.17,61.17,0,0,0,457,313.34V297.55A46.84,46.84,0,0,1,409,295V241.64h89.8V331.4H409V311.56A60.93,60.93,0,0,0,435.11,317.41ZM409,369.2V332.15h89.57A127.49,127.49,0,0,1,409,369.2Zm90.55-38V241.64h37A127.51,127.51,0,0,1,499.55,331.18Z" transform="translate(-286.55 -150.15)"/><path class="cls-4" d="M418.8,201.91h0a60.73,60.73,0,0,1,8.59-1.71,62.34,62.34,0,0,1,6.45-.47c.43,0,.85,0,1.27,0,1.6,0,3.17.08,4.73.2V187.73H349.11v90.72h29.34a57.27,57.27,0,0,1-3.57-19.91C374.88,231.62,393.49,208.88,418.8,201.91Z" transform="translate(-286.55 -150.15)"/><path class="cls-4" d="M433.84,214.18c-24.65.66-44.51,20.3-44.51,44.37a43,43,0,0,0,4.9,19.91h14V240.89h31.59V214.41a46.06,46.06,0,0,0-4.73-.26Z" transform="translate(-286.55 -150.15)"/></svg>