<svg id="圖層_1" data-name="圖層 1" xmlns="http://www.w3.org/2000/svg" viewBox="0 0 275.74 40.74"><defs><style>.cls-1{fill:#231f20;}</style></defs><title>crewvio w3</title><path class="cls-1" d="M272.11,277.57a20.62,20.62,0,0,0,20.83,20.36,21,21,0,0,0,7.56-1.41v-5.46a16.12,16.12,0,0,1-7.56,1.87,15.37,15.37,0,1,1,0-30.72,16.12,16.12,0,0,1,7.56,1.87v-5.46a21.25,21.25,0,0,0-7.56-1.41A20.62,20.62,0,0,0,272.11,277.57Z" transform="translate(-272.11 -257.2)"/><polygon class="cls-1" points="186.92 28.26 174.43 0.02 168.91 0.02 184.17 34.49 186.92 40.72 189.68 34.49 204.94 0.02 199.42 0.02 186.92 28.26"/><rect class="cls-1" x="219.31" y="0.01" width="4.71" height="40.72"/><polygon class="cls-1" points="77.2 5.43 100.29 5.55 100.31 1 77.22 0.88 77.2 5.43"/><polygon class="cls-1" points="77.2 39.74 100.29 39.86 100.31 35.31 77.22 35.19 77.2 39.74"/><polygon class="cls-1" points="77.2 22.59 100.29 22.7 100.31 18.15 77.22 18.04 77.2 22.59"/><path class="cls-1" d="M528.77,257.24c-10.52,0-19.08,9.12-19.08,20.33s8.56,20.34,19.08,20.34,19.08-9.12,19.08-20.34S539.29,257.24,528.77,257.24Zm0,35.83c-8.09,0-14.66-6.95-14.66-15.5s6.57-15.49,14.66-15.49,14.66,6.95,14.66,15.49S536.85,293.07,528.77,293.07Z" transform="translate(-272.11 -257.2)"/><polygon class="cls-1" points="145.45 27.87 145.45 27.87 143.93 31.73 142.83 34.52 142.83 34.52 145.78 40.71 147.99 35.13 148.41 34.07 161.87 0 156.46 0 145.45 27.87"/><polygon class="cls-1" points="135.88 7.84 132.98 13.91 126.3 27.9 115.3 0.05 109.89 0.05 123.34 34.1 125.97 40.74 128.93 34.55 135.88 19.98 139.74 28.05 142.55 21.8 138.78 13.91 135.88 7.84"/><polygon class="cls-1" points="42.73 20.37 42.73 20.38 42.73 20.37 42.73 20.37"/><path class="cls-1" d="M337.17,270a12.83,12.83,0,0,0-12.81-12.81H312.84v5h11.52a7.81,7.81,0,0,1,0,15.62H312.84l4.19,5,12.66,15.1h6.07l-12.66-15.1h1.26A12.82,12.82,0,0,0,337.17,270Z" transform="translate(-272.11 -257.2)"/></svg>