<svg id="圖層_1" data-name="圖層 1" xmlns="http://www.w3.org/2000/svg" viewBox="0 0 225.78 219.8"><defs><style>.cls-1{fill:none;}.cls-2{fill:#929aab;}.cls-3{fill:#393e46;}.cls-4{fill:#fff;}</style></defs><title>Crewvio b2</title><path class="cls-1" d="M353.74,369h89.79V279.23H384.58v36.82H353.73v16.52a46.84,46.84,0,0,0,48,2.57v15.78a60.92,60.92,0,0,1-48-1.77V369Z" transform="translate(-256.27 -187.74)"/><path class="cls-1" d="M353.74,406.78a127.52,127.52,0,0,0,89.57-37H353.74Z" transform="translate(-256.27 -187.74)"/><path class="cls-1" d="M348,316.05h-9c.35.67.71,1.34,1.09,2,.61,1,1.25,2,1.94,3,.24.35.49.68.74,1A45.51,45.51,0,0,0,353,332v-16h-5Z" transform="translate(-256.27 -187.74)"/><path class="cls-1" d="M444.28,368.76a127.48,127.48,0,0,0,37-89.53h-37Z" transform="translate(-256.27 -187.74)"/><path class="cls-2" d="M256.27,316.05h37.58V225.32A127.91,127.91,0,0,0,256.27,316.05Z" transform="translate(-256.27 -187.74)"/><path class="cls-2" d="M384.58,187.74a127.89,127.89,0,0,0-90.73,37.58h90.73Z" transform="translate(-256.27 -187.74)"/><rect class="cls-3" x="97.47" y="91.49" width="30.84" height="36.82"/><path class="cls-4" d="M444.28,278.48H353V332a45.51,45.51,0,0,1-10.26-10c-.25-.34-.5-.67-.74-1-.69-1-1.33-2-1.94-3-.38-.66-.74-1.33-1.09-2a43,43,0,0,1-4.89-19.91c0-24.07,19.85-43.72,44.51-44.37l1.26,0c1.6,0,3.18.1,4.74.25a46.42,46.42,0,0,1,17.12,5.15V241.35a61.24,61.24,0,0,0-17.12-3.87c-1.57-.12-3.14-.2-4.74-.2l-1.26,0a62.32,62.32,0,0,0-6.46.48,61,61,0,0,0-8.59,1.71h0c-25.31,7-43.92,29.71-43.92,56.64a57.32,57.32,0,0,0,3.58,19.91c.24.67.49,1.34.77,2a59.13,59.13,0,0,0,18,23.82c.24.2.5.39.74.58A61.21,61.21,0,0,0,353,348.8v58.74h.37A128.83,128.83,0,0,0,482,278.85v-.37ZM379.84,355a60.91,60.91,0,0,0,21.86-4.08V335.14a46.84,46.84,0,0,1-48-2.57V279.23h89.8V369h-89.8V349.15A60.93,60.93,0,0,0,379.84,355Zm-26.1,51.78v-37h89.57A127.52,127.52,0,0,1,353.74,406.78Zm90.54-38V279.23h37A127.48,127.48,0,0,1,444.28,368.76Z" transform="translate(-256.27 -187.74)"/><path class="cls-3" d="M363.53,239.5h0a61,61,0,0,1,8.59-1.71,62.32,62.32,0,0,1,6.46-.48l1.26,0c1.6,0,3.17.08,4.74.2V225.32H293.85v90.73h29.34a57.32,57.32,0,0,1-3.58-19.91C319.61,269.21,338.22,246.46,363.53,239.5Z" transform="translate(-256.27 -187.74)"/><path class="cls-3" d="M378.58,251.77c-24.66.65-44.51,20.3-44.51,44.37A43,43,0,0,0,339,316.05h14V278.48h31.59V252c-1.56-.15-3.14-.25-4.74-.25Z" transform="translate(-256.27 -187.74)"/></svg>